<?xml version="1.0" encoding="UTF-8"?>
<svg xmlns="http://www.w3.org/2000/svg" xmlns:xlink="http://www.w3.org/1999/xlink" width="30px" height="30px" viewBox="0 0 30 30" version="1.1">
<g id="surface1">
<path style=" stroke:none;fill-rule:nonzero;fill:rgb(0%,0%,0%);fill-opacity:1;" d="M 15.882812 25.011719 L 13.144531 25.011719 C 12.207031 25.011719 11.417969 24.226562 11.417969 23.289062 L 11.417969 17.136719 L 10.632812 17.136719 C 9.695312 17.136719 8.90625 16.351562 8.90625 15.414062 L 8.90625 13.085938 C 8.90625 12.148438 9.695312 11.363281 10.632812 11.363281 L 11.457031 11.363281 L 11.457031 10.613281 C 11.457031 7.164062 13.445312 4.988281 16.667969 4.988281 C 17.792969 4.988281 18.769531 5.0625 19.179688 5.101562 C 20.042969 5.210938 20.679688 5.960938 20.679688 6.824219 L 20.679688 9.148438 C 20.679688 10.085938 19.894531 10.875 18.957031 10.875 L 17.679688 10.875 L 17.679688 11.363281 L 18.882812 11.363281 C 19.820312 11.363281 20.605469 12.148438 20.605469 13.085938 C 20.605469 13.199219 20.605469 13.273438 20.570312 13.386719 L 20.195312 15.636719 C 20.082031 16.460938 19.332031 17.101562 18.46875 17.101562 L 17.679688 17.101562 L 17.679688 23.25 C 17.644531 24.226562 16.855469 25.011719 15.882812 25.011719 Z M 10.632812 12.9375 C 10.554688 12.9375 10.480469 13.011719 10.480469 13.085938 L 10.480469 15.414062 C 10.480469 15.488281 10.554688 15.5625 10.632812 15.5625 L 12.242188 15.5625 C 12.695312 15.5625 13.03125 15.898438 13.03125 16.351562 L 13.03125 23.25 C 13.03125 23.324219 13.105469 23.398438 13.179688 23.398438 L 15.917969 23.398438 C 15.992188 23.398438 16.070312 23.324219 16.070312 23.25 L 16.070312 16.351562 C 16.070312 15.898438 16.40625 15.5625 16.855469 15.5625 L 18.429688 15.5625 C 18.507812 15.5625 18.582031 15.488281 18.582031 15.414062 L 18.957031 13.085938 C 18.957031 13.011719 18.882812 12.9375 18.804688 12.9375 L 16.820312 12.9375 C 16.367188 12.9375 16.03125 12.601562 16.03125 12.148438 L 16.03125 10.574219 C 16.03125 10.238281 16.070312 10.011719 16.144531 9.824219 C 16.21875 9.636719 16.332031 9.523438 16.519531 9.449219 C 16.707031 9.335938 16.96875 9.300781 17.34375 9.300781 L 18.917969 9.300781 C 18.992188 9.300781 19.070312 9.226562 19.070312 9.148438 L 19.070312 6.824219 C 19.070312 6.75 18.992188 6.675781 18.917969 6.675781 C 18.617188 6.636719 17.679688 6.5625 16.632812 6.5625 C 13.480469 6.5625 12.992188 9.113281 12.992188 10.613281 L 12.992188 12.148438 C 12.992188 12.601562 12.65625 12.9375 12.207031 12.9375 C 12.207031 12.9375 10.632812 12.9375 10.632812 12.9375 Z M 10.632812 12.9375 "/>
</g>
</svg>
