<?xml version="1.0" encoding="UTF-8"?>
<svg xmlns="http://www.w3.org/2000/svg" xmlns:xlink="http://www.w3.org/1999/xlink" width="30px" height="30px" viewBox="0 0 30 30" version="1.1">
<g id="surface1">
<path style=" stroke:none;fill-rule:nonzero;fill:rgb(0%,0%,0%);fill-opacity:1;" d="M 20.136719 10.574219 C 20.136719 11.023438 19.761719 11.363281 19.351562 11.363281 C 18.898438 11.363281 18.5625 10.988281 18.5625 10.574219 C 18.5625 10.125 18.9375 9.789062 19.351562 9.789062 C 19.761719 9.75 20.136719 10.125 20.136719 10.574219 Z M 23.210938 10.914062 L 23.210938 19.085938 C 23.210938 21.414062 21.300781 23.324219 18.976562 23.324219 L 10.800781 23.324219 C 8.476562 23.324219 6.5625 21.414062 6.5625 19.085938 L 6.5625 10.914062 C 6.5625 8.585938 8.476562 6.675781 10.800781 6.675781 L 18.976562 6.675781 C 21.335938 6.675781 23.210938 8.585938 23.210938 10.914062 Z M 21.636719 10.914062 C 21.636719 9.449219 20.4375 8.25 18.976562 8.25 L 10.800781 8.25 C 9.335938 8.25 8.136719 9.449219 8.136719 10.914062 L 8.136719 19.085938 C 8.136719 20.550781 9.335938 21.75 10.800781 21.75 L 18.976562 21.75 C 20.476562 21.75 21.675781 20.550781 21.675781 19.085938 Z M 19.238281 15 C 19.238281 12.601562 17.289062 10.648438 14.886719 10.648438 C 12.488281 10.648438 10.539062 12.601562 10.539062 15 C 10.539062 17.398438 12.488281 19.351562 14.886719 19.351562 C 17.289062 19.351562 19.238281 17.398438 19.238281 15 Z M 17.664062 15 C 17.664062 16.539062 16.425781 17.773438 14.886719 17.773438 C 13.351562 17.773438 12.113281 16.539062 12.113281 15 C 12.113281 13.460938 13.351562 12.226562 14.886719 12.226562 C 16.425781 12.226562 17.664062 13.460938 17.664062 15 Z M 17.664062 15 "/>
</g>
</svg>
