<?xml version="1.0" encoding="UTF-8"?>
<svg xmlns="http://www.w3.org/2000/svg" xmlns:xlink="http://www.w3.org/1999/xlink" width="30px" height="30px" viewBox="0 0 30 30" version="1.1">
<g id="surface1">
<path style=" stroke:none;fill-rule:nonzero;fill:rgb(0%,0%,0%);fill-opacity:1;" d="M 29.230469 29.367188 L 23.136719 29.367188 C 22.707031 29.367188 22.359375 29.019531 22.359375 28.589844 L 22.359375 18.773438 C 22.359375 15.40625 20.621094 15.40625 20.050781 15.40625 C 18.507812 15.40625 17.851562 16.625 17.640625 17.148438 C 17.539062 17.386719 17.492188 17.789062 17.492188 18.347656 L 17.492188 28.59375 C 17.492188 29.027344 17.144531 29.375 16.714844 29.375 L 10.613281 29.375 C 10.40625 29.375 10.207031 29.292969 10.058594 29.144531 C 9.910156 28.996094 9.828125 28.792969 9.835938 28.589844 C 9.835938 28.421875 9.917969 11.964844 9.835938 10.28125 C 9.820312 10.066406 9.898438 9.863281 10.046875 9.707031 C 10.195312 9.554688 10.394531 9.464844 10.613281 9.464844 L 16.714844 9.464844 C 17.144531 9.464844 17.492188 9.816406 17.492188 10.246094 L 17.492188 10.707031 C 18.519531 9.789062 20.003906 9.035156 22.210938 9.035156 C 27.09375 9.035156 30.011719 12.410156 30.011719 18.070312 L 30.011719 28.585938 C 30.011719 29.019531 29.664062 29.367188 29.234375 29.367188 Z M 23.917969 27.808594 L 28.457031 27.808594 L 28.457031 18.070312 C 28.457031 13.316406 26.183594 10.59375 22.21875 10.59375 C 19.566406 10.59375 18.277344 11.917969 17.46875 13.128906 C 17.375 13.445312 17.074219 13.683594 16.71875 13.683594 L 16.675781 13.683594 C 16.394531 13.683594 16.132812 13.527344 16 13.28125 C 15.890625 13.085938 15.867188 12.863281 15.9375 12.65625 L 15.9375 11.019531 L 11.410156 11.019531 C 11.449219 14.273438 11.410156 24.800781 11.398438 27.800781 L 15.933594 27.800781 L 15.933594 18.34375 C 15.933594 17.554688 16.015625 16.992188 16.191406 16.558594 C 16.878906 14.863281 18.320312 13.84375 20.042969 13.84375 C 22.5 13.84375 23.910156 15.636719 23.910156 18.769531 L 23.910156 27.808594 Z M 7.242188 29.367188 L 1.140625 29.367188 C 0.707031 29.367188 0.359375 29.019531 0.359375 28.589844 L 0.359375 10.246094 C 0.359375 9.816406 0.710938 9.46875 1.140625 9.46875 L 7.242188 9.46875 C 7.671875 9.46875 8.019531 9.816406 8.019531 10.246094 L 8.019531 28.589844 C 8.019531 29.019531 7.671875 29.367188 7.242188 29.367188 Z M 1.917969 27.808594 L 6.460938 27.808594 L 6.460938 11.027344 L 1.917969 11.027344 Z M 4.191406 8.523438 L 4.152344 8.523438 C 1.746094 8.523438 0 6.855469 0 4.566406 C 0 2.28125 1.777344 0.613281 4.234375 0.613281 C 6.648438 0.613281 8.375 2.234375 8.421875 4.546875 C 8.421875 6.855469 6.644531 8.523438 4.195312 8.523438 Z M 4.234375 2.179688 C 2.632812 2.179688 1.558594 3.140625 1.558594 4.570312 C 1.558594 5.976562 2.621094 6.960938 4.148438 6.960938 L 4.191406 6.960938 C 5.785156 6.960938 6.859375 6 6.859375 4.570312 C 6.832031 3.125 5.796875 2.179688 4.234375 2.179688 Z M 4.234375 2.179688 "/>
</g>
</svg>
