<svg xmlns="http://www.w3.org/2000/svg" width="3000" height="3000" viewBox="0 0 3000 3000">
  <defs>
    <style>
      .cls-1 {
        fill-rule: evenodd;
      }
    </style>
  </defs>
  <path id="Shape_2_copy_3" data-name="Shape 2 copy 3" class="cls-1" d="M1284,1177c129.67-110.4,185.72-222.468,221-341s73.21-279.756,21-387-116.78-208-289-216c-218.03-10.124-329.923,37.045-416,133S713.919,597.715,693,706c-19.688-94.75-73.84-92.007-94.5-82.509s-22.441,48.305,9.9,139.782c41.247,123.361,49.364,424.227,24.637,1009.4-7.455,176.41-19.977,402.26-18.555,477.49s120.828,98.5,131.85-54.43,18.555-409.11,18.555-701.38c0-466.31-7.354-556.368-21.878-674.35,30.354-118.707,101.049-308.477,198.415-379.032s235.485-112.832,325.685-48.8c145.15,88.738,148.99,325.553,93.21,465.42-56.88,142.619-126.62,236.079-181.03,287.919-4.67,4.45,10.07,41.18,6.18,25.98s-22.31,31.64,6.19,48.24c37.19,21,88.25,55.1,132.36,87.83,129.46,96.07,351.84,350.41,444.99,509.44,113.24,190.15,126.13,218.31,209,395,45.8,97.65,98.12,192.88,151,270,42.85,62.49,81.92,110.64,151.02,157.98,134.85,92.39,217.06,18.06,206.98-108.98,0-22.19-39.98-129.02-49-107,27.91,182.28-128.24,182.01-188,112s-75.85-85.5-145-211-173.16-458.58-284-647S1603.41,1354.76,1284,1177Z"/>
  <path id="Shape_2_copy_2" data-name="Shape 2 copy 2" class="cls-1" d="M1274,1174c-110.61-56.75-187.77-83.7-278.288-85.45,45.448,0.88-181.5-34.3-188.712,113.45,0,72.07,70.173,102.35,169,101s211.88-44.25,292-120m-148,7.64c-152.926,99.52-233.768,20.19-232.746,11.11,8.865-78.74,204.106-24.45,232.646-11.71"/>
</svg>
