<?xml version="1.0" encoding="UTF-8"?>
<svg xmlns="http://www.w3.org/2000/svg" xmlns:xlink="http://www.w3.org/1999/xlink" width="30px" height="30px" viewBox="0 0 30 30" version="1.1">
<g id="surface1">
<path style=" stroke:none;fill-rule:nonzero;fill:rgb(0%,0%,0%);fill-opacity:1;" d="M 5.625 1.875 L 24.375 1.875 C 26.4375 1.875 28.125 3.5625 28.125 5.625 L 28.125 24.375 C 28.125 26.4375 26.4375 28.125 24.375 28.125 L 5.625 28.125 C 3.5625 28.125 1.875 26.4375 1.875 24.375 L 1.875 5.625 C 1.875 3.5625 3.5625 1.875 5.625 1.875 Z M 5.625 1.875 "/>
<path style=" stroke:none;fill-rule:nonzero;fill:rgb(100%,100%,100%);fill-opacity:1;" d="M 18.65625 6.75 C 18.65625 6.5625 18.65625 6.28125 18.75 6.09375 C 18.84375 5.25 19.3125 4.78125 20.15625 4.6875 C 20.71875 4.59375 21.375 4.59375 22.03125 4.6875 C 22.875 4.78125 23.34375 5.34375 23.4375 6.28125 C 23.4375 7.03125 23.4375 7.875 23.4375 8.625 C 23.4375 8.625 23.4375 8.625 23.4375 8.71875 L 21.9375 8.71875 C 21.9375 8.625 21.9375 8.53125 21.9375 8.53125 C 21.9375 7.96875 21.9375 7.3125 21.9375 6.75 C 21.9375 6.375 21.84375 6.1875 21.5625 6.09375 C 21.375 6.09375 21.09375 6.09375 20.8125 6.09375 C 20.53125 6.09375 20.4375 6.28125 20.4375 6.5625 C 20.4375 6.65625 20.4375 6.75 20.4375 6.84375 C 20.4375 9 20.4375 11.15625 20.4375 13.21875 C 20.4375 13.3125 20.4375 13.40625 20.4375 13.5 C 20.4375 13.78125 20.625 13.96875 20.90625 13.96875 C 21.09375 13.96875 21.28125 13.96875 21.375 13.96875 C 21.65625 13.96875 21.84375 13.78125 21.84375 13.5 C 21.84375 13.40625 21.84375 13.21875 21.84375 13.125 C 21.84375 12.46875 21.84375 11.90625 21.84375 11.25 C 21.84375 11.15625 21.84375 11.0625 21.84375 11.0625 L 23.34375 11.0625 C 23.34375 11.15625 23.34375 11.15625 23.34375 11.25 C 23.34375 12.09375 23.34375 12.84375 23.34375 13.6875 C 23.34375 13.875 23.34375 14.0625 23.25 14.34375 C 23.0625 14.90625 22.6875 15.375 22.125 15.46875 C 21.46875 15.5625 20.71875 15.5625 20.0625 15.46875 C 19.3125 15.375 18.84375 14.8125 18.75 14.0625 C 18.75 13.875 18.75 13.59375 18.75 13.40625 C 18.65625 11.0625 18.65625 8.90625 18.65625 6.75 Z M 18.65625 6.75 "/>
<path style=" stroke:none;fill-rule:nonzero;fill:rgb(100%,100%,100%);fill-opacity:1;" d="M 16.21875 4.6875 L 17.8125 4.6875 L 17.8125 15.375 L 16.3125 15.375 L 16.3125 4.6875 Z M 16.21875 4.6875 "/>
<path style=" stroke:none;fill-rule:nonzero;fill:rgb(100%,100%,100%);fill-opacity:1;" d="M 16.3125 18 L 17.15625 18 L 17.15625 21.09375 L 16.3125 21.09375 L 16.3125 19.3125 L 16.21875 19.3125 C 15.9375 19.6875 15.75 20.0625 15.46875 20.53125 C 15.1875 20.15625 14.90625 19.6875 14.71875 19.3125 L 14.625 19.3125 L 14.625 21.09375 L 13.875 21.09375 L 13.875 18 L 14.71875 18 C 15 18.375 15.1875 18.75 15.46875 19.21875 C 15.84375 18.75 16.03125 18.375 16.3125 18 Z M 16.3125 18 "/>
<path style=" stroke:none;fill-rule:nonzero;fill:rgb(100%,100%,100%);fill-opacity:1;" d="M 6.65625 4.6875 L 10.125 4.6875 L 10.125 6.1875 L 8.25 6.1875 L 8.25 9.1875 L 10.125 9.1875 L 10.125 10.59375 L 8.25 10.59375 L 8.25 13.78125 L 10.21875 13.78125 L 10.21875 15.1875 L 6.65625 15.1875 Z M 6.65625 4.6875 "/>
<path style=" stroke:none;fill-rule:nonzero;fill:rgb(100%,100%,100%);fill-opacity:1;" d="M 9.65625 20.71875 C 9.28125 21 8.90625 21.1875 8.4375 21.1875 C 7.59375 21.1875 6.84375 20.8125 6.65625 19.875 C 6.46875 18.65625 7.3125 17.90625 8.25 17.90625 C 8.625 17.90625 9.09375 18 9.375 18.1875 C 9.46875 18.1875 9.46875 18.28125 9.5625 18.28125 C 9.375 18.5625 9.1875 18.75 9 18.9375 C 8.71875 18.75 8.34375 18.5625 7.96875 18.75 C 7.78125 18.75 7.6875 18.84375 7.5 19.03125 C 7.21875 19.40625 7.3125 19.96875 7.59375 20.25 C 7.875 20.53125 8.4375 20.53125 8.71875 20.34375 L 8.71875 19.96875 L 8.25 19.96875 L 8.25 19.3125 L 9.65625 19.3125 Z M 9.65625 20.71875 "/>
<path style=" stroke:none;fill-rule:nonzero;fill:rgb(100%,100%,100%);fill-opacity:1;" d="M 17.625 25.59375 C 16.78125 25.875 15.9375 26.15625 15.09375 26.4375 C 15 26.4375 14.90625 26.4375 14.71875 26.4375 C 13.40625 25.96875 12 25.5 10.6875 25.03125 C 10.6875 25.03125 10.59375 25.03125 10.5 24.9375 L 19.3125 24.9375 C 18.84375 25.21875 18.28125 25.40625 17.625 25.59375 Z M 17.625 25.59375 "/>
<path style=" stroke:none;fill-rule:nonzero;fill:rgb(100%,100%,100%);fill-opacity:1;" d="M 20.4375 21.09375 L 17.90625 21.09375 L 17.90625 18 L 20.34375 18 L 20.34375 18.65625 L 18.65625 18.65625 L 18.65625 19.21875 L 20.15625 19.21875 L 20.15625 19.875 L 18.65625 19.875 L 18.65625 20.4375 L 20.34375 20.4375 L 20.34375 21.09375 Z M 20.4375 21.09375 "/>
<path style=" stroke:none;fill-rule:nonzero;fill:rgb(100%,100%,100%);fill-opacity:1;" d="M 22.96875 21 C 22.40625 21.375 21.1875 21.1875 20.71875 20.71875 C 20.90625 20.53125 21 20.34375 21.1875 20.15625 C 21.46875 20.34375 21.75 20.53125 22.125 20.53125 C 22.21875 20.53125 22.3125 20.53125 22.40625 20.53125 C 22.5 20.53125 22.5 20.4375 22.59375 20.34375 C 22.59375 20.25 22.5 20.15625 22.5 20.15625 C 22.3125 20.0625 22.21875 20.0625 22.03125 19.96875 C 21.84375 19.875 21.65625 19.875 21.46875 19.78125 C 21.1875 19.6875 21 19.5 20.90625 19.125 C 20.90625 18.75 21 18.375 21.28125 18.1875 C 21.65625 17.90625 22.125 17.90625 22.59375 18 C 22.875 18.09375 23.15625 18.1875 23.34375 18.375 C 23.25 18.5625 23.0625 18.75 22.96875 18.9375 C 22.6875 18.84375 22.40625 18.75 22.125 18.65625 C 22.03125 18.65625 21.9375 18.65625 21.9375 18.65625 C 21.84375 18.65625 21.75 18.75 21.75 18.84375 C 21.75 18.9375 21.84375 19.03125 21.84375 19.03125 C 22.03125 19.125 22.21875 19.125 22.40625 19.21875 C 22.59375 19.3125 22.78125 19.3125 22.96875 19.40625 C 23.25 19.5 23.4375 19.78125 23.4375 20.15625 C 23.4375 20.53125 23.34375 20.8125 22.96875 21 Z M 22.96875 21 "/>
<path style=" stroke:none;fill-rule:nonzero;fill:rgb(100%,100%,100%);fill-opacity:1;" d="M 15.46875 6.375 C 15.46875 5.90625 15.28125 5.34375 14.90625 5.0625 C 14.53125 4.78125 14.15625 4.6875 13.78125 4.6875 C 12.9375 4.6875 12.09375 4.6875 11.25 4.6875 C 11.15625 4.6875 11.0625 4.6875 11.0625 4.6875 L 11.0625 15.28125 L 12.65625 15.28125 L 12.65625 11.4375 C 12.75 11.4375 12.84375 11.4375 12.9375 11.4375 C 13.3125 11.4375 13.6875 11.4375 14.0625 11.4375 C 14.90625 11.34375 15.46875 10.78125 15.46875 9.9375 C 15.46875 8.71875 15.46875 7.59375 15.46875 6.375 Z M 13.875 9.5625 C 13.875 9.84375 13.6875 10.03125 13.40625 10.03125 C 13.125 10.03125 12.84375 10.03125 12.5625 10.03125 L 12.5625 6.1875 C 12.84375 6.1875 13.125 6.1875 13.3125 6.1875 C 13.59375 6.1875 13.78125 6.375 13.78125 6.75 C 13.875 7.6875 13.875 8.625 13.875 9.5625 Z M 13.875 9.5625 "/>
<path style=" stroke:none;fill-rule:nonzero;fill:rgb(100%,100%,100%);fill-opacity:1;" d="M 12.09375 18 L 11.34375 18 C 10.875 19.03125 10.5 20.0625 10.03125 21.1875 L 10.875 21.1875 C 10.96875 21 11.0625 20.8125 11.0625 20.625 L 12.375 20.625 C 12.46875 20.8125 12.5625 21 12.65625 21.1875 L 13.5 21.1875 C 13.03125 20.0625 12.5625 19.03125 12.09375 18 Z M 11.34375 19.875 C 11.4375 19.59375 11.625 19.3125 11.71875 18.9375 C 11.8125 19.3125 12 19.59375 12.09375 19.875 Z M 11.34375 19.875 "/>
</g>
</svg>
