<?xml version="1.0" encoding="UTF-8"?>
<svg xmlns="http://www.w3.org/2000/svg" xmlns:xlink="http://www.w3.org/1999/xlink" width="30px" height="30px" viewBox="0 0 30 30" version="1.1">
<g id="surface1">
<path style=" stroke:none;fill-rule:nonzero;fill:rgb(0%,0%,0%);fill-opacity:1;" d="M 15.003906 30 C 14.269531 30.003906 13.5625 29.710938 13.039062 29.191406 L 5.878906 22.03125 C 3.453125 19.617188 2.089844 16.328125 2.101562 12.90625 C 2.089844 9.480469 3.453125 6.195312 5.878906 3.78125 C 8.292969 1.351562 11.582031 -0.0078125 15.003906 0 C 18.429688 -0.0078125 21.714844 1.351562 24.128906 3.78125 C 26.558594 6.195312 27.917969 9.480469 27.910156 12.902344 C 27.917969 16.328125 26.558594 19.613281 24.128906 22.027344 L 16.96875 29.1875 C 16.449219 29.710938 15.742188 30.003906 15.003906 30 Z M 15.003906 1.875 C 12.078125 1.867188 9.269531 3.03125 7.207031 5.105469 C 2.90625 9.417969 2.90625 16.394531 7.207031 20.703125 L 14.367188 27.863281 C 14.71875 28.210938 15.289062 28.210938 15.644531 27.863281 L 22.804688 20.703125 C 27.101562 16.394531 27.101562 9.417969 22.804688 5.105469 C 20.738281 3.03125 17.929688 1.867188 15.003906 1.875 Z M 15.003906 19.050781 C 11.613281 19.046875 8.863281 16.296875 8.859375 12.90625 C 8.859375 9.507812 11.609375 6.753906 15.003906 6.75 C 18.398438 6.753906 21.152344 9.507812 21.148438 12.90625 C 21.144531 16.296875 18.398438 19.046875 15.003906 19.050781 Z M 15.003906 8.625 C 12.648438 8.628906 10.738281 10.539062 10.734375 12.898438 C 10.734375 15.257812 12.644531 17.171875 15.003906 17.175781 C 17.363281 17.171875 19.269531 15.261719 19.273438 12.90625 C 19.277344 10.542969 17.363281 8.628906 15.003906 8.625 Z M 15.003906 8.625 "/>
</g>
</svg>
