<?xml version="1.0" encoding="UTF-8"?>
<svg xmlns="http://www.w3.org/2000/svg" xmlns:xlink="http://www.w3.org/1999/xlink" width="30px" height="30px" viewBox="0 0 30 30" version="1.1">
<g id="surface1">
<path style=" stroke:none;fill-rule:evenodd;fill:rgb(0%,0%,0%);fill-opacity:1;" d="M 23.4375 23.90625 C 23.4375 26.234375 21.375 28.125 18.835938 28.125 L 11.164062 28.125 C 8.625 28.125 6.5625 26.234375 6.5625 23.90625 L 6.5625 21.09375 C 6.5625 19.101562 8.074219 17.441406 10.101562 17 C 11.484375 18.097656 13.171875 18.75 15 18.75 C 16.828125 18.75 18.515625 18.097656 19.898438 17 C 21.925781 17.441406 23.4375 19.101562 23.4375 21.09375 Z M 8.4375 9.375 C 8.4375 5.234375 11.375 1.875 15 1.875 C 18.625 1.875 21.5625 5.234375 21.5625 9.375 C 21.5625 13.515625 18.625 16.875 15 16.875 C 11.375 16.875 8.4375 13.515625 8.4375 9.375 Z M 21.515625 15.332031 C 22.714844 13.710938 23.4375 11.636719 23.4375 9.375 C 23.4375 4.199219 19.660156 0 15 0 C 10.339844 0 6.5625 4.199219 6.5625 9.375 C 6.5625 11.636719 7.285156 13.710938 8.484375 15.332031 C 6.28125 16.09375 4.6875 18.164062 4.6875 20.625 L 4.6875 24.375 C 4.6875 27.480469 7.207031 30 10.3125 30 L 19.6875 30 C 22.792969 30 25.3125 27.480469 25.3125 24.375 L 25.3125 20.625 C 25.3125 18.164062 23.71875 16.09375 21.515625 15.332031 Z M 21.515625 15.332031 "/>
</g>
</svg>
