<?xml version="1.0" encoding="UTF-8"?>
<svg xmlns="http://www.w3.org/2000/svg" xmlns:xlink="http://www.w3.org/1999/xlink" width="30px" height="30px" viewBox="0 0 30 30" version="1.1">
<g id="surface1">
<path style=" stroke:none;fill-rule:evenodd;fill:rgb(0%,0%,0%);fill-opacity:1;" d="M 22.5 25.3125 C 21.464844 25.3125 20.625 26.152344 20.625 27.1875 C 20.625 28.222656 21.464844 29.0625 22.5 29.0625 C 23.535156 29.0625 24.375 28.222656 24.375 27.1875 C 24.375 26.152344 23.535156 25.3125 22.5 25.3125 Z M 13.125 25.3125 C 12.089844 25.3125 11.25 26.152344 11.25 27.1875 C 11.25 28.222656 12.089844 29.0625 13.125 29.0625 C 14.160156 29.0625 15 28.222656 15 27.1875 C 15 26.152344 14.160156 25.3125 13.125 25.3125 Z M 25.3125 19.6875 C 25.3125 20.722656 24.472656 21.5625 23.4375 21.5625 L 13.125 21.5625 C 12.089844 21.5625 11.25 20.722656 11.25 19.6875 L 9.6875 10.3125 L 27.65625 10.3125 Z M 9.347656 8.4375 L 7.007812 0.9375 L 0.9375 0.9375 C 0.417969 0.9375 0 1.359375 0 1.875 C 0 2.394531 0.417969 2.8125 0.9375 2.8125 L 5.625 2.8125 L 7.511719 8.4375 L 7.5 8.4375 L 9.375 19.6875 C 9.375 21.757812 11.054688 23.4375 13.125 23.4375 L 23.4375 23.4375 C 25.507812 23.4375 27.1875 21.757812 27.1875 19.6875 L 30 8.4375 Z M 9.347656 8.4375 "/>
</g>
</svg>
