<?xml version="1.0" encoding="UTF-8"?>
<svg xmlns="http://www.w3.org/2000/svg" xmlns:xlink="http://www.w3.org/1999/xlink" width="30px" height="30px" viewBox="0 0 30 30" version="1.1">
<g id="surface1">
<path style=" stroke:none;fill-rule:evenodd;fill:rgb(0%,0%,0%);fill-opacity:1;" d="M 26.25 13.296875 L 15 26.71875 L 3.75 13.242188 C 2.40625 11.371094 1.875 10.109375 1.875 8.378906 C 1.875 5.15625 4.175781 2.253906 7.5 2.226562 C 10.234375 2.203125 13.332031 4.996094 15 7.101562 C 16.621094 5.070312 19.765625 2.226562 22.5 2.226562 C 25.734375 2.226562 28.125 5.15625 28.125 8.378906 C 28.125 10.109375 27.707031 11.464844 26.25 13.296875 Z M 22.5 0.46875 C 19.375 0.46875 17.011719 2.300781 15 4.21875 C 13.085938 2.183594 10.625 0.46875 7.5 0.46875 C 3.097656 0.46875 0 4.253906 0 8.378906 C 0 10.59375 0.90625 12.1875 1.898438 13.683594 L 13.554688 27.660156 C 14.863281 29.042969 15.109375 29.042969 16.417969 27.660156 L 28.101562 13.683594 C 29.269531 12.1875 30 10.59375 30 8.378906 C 30 4.253906 26.902344 0.46875 22.5 0.46875 Z M 22.5 0.46875 "/>
</g>
</svg>
