<svg xmlns="http://www.w3.org/2000/svg" width="3000" height="3000" viewBox="0 0 3000 3000">
  <defs>
    <style>
      .cls-1 {
        fill: #fff;
        fill-rule: evenodd;
      }
    </style>
  </defs>
  <rect x="330" y="330" width="2340" height="2340" rx="354" ry="354"/>
  <path id="Shape_2_copy_3" data-name="Shape 2 copy 3" class="cls-1" d="M1442,1283c206.94-155.67,273-342,234-549s-258.14-308.236-423-315c-208.72-8.563-325.6,64.836-402,167-69.266,92.625-91.975,172.406-112,264-48.482-153.2-206.03-222.055-150-82,39.484,104.346,75,720.09,75,945s-8.682,390.73-7.321,454.36,115.665,83.32,126.216-46.04,17.763-346.05,17.763-593.27c0-394.43-7.04-470.6-20.944-570.4C809.073,857.128,891.821,716,976.669,659.573,1068.82,598.285,1254,536,1356,641s95.39,250.692,42,369c-54.44,120.63-148.57,179.14-200.65,222.99-4.47,3.76,9.64,34.83,5.92,21.97s-21.36,26.76,5.92,40.81c35.61,17.76,84.49,46.6,126.7,74.29,123.93,81.26,314.94,227.42,404.11,361.94,108.4,160.84,171.1,330.68,211,425,112.87,266.77,223.66,328.86,347,347s284.99-75.81,229-267c-57.86-197.57-158-292-122-73s-48,281-150,242-138-148-183-298-75.9-328.62-182-488S1604.49,1362.87,1442,1283Z"/>
  <path id="Shape_2_copy_2" data-name="Shape 2 copy 2" class="cls-1" d="M1396,1277c-130.66-63.76-231.55-97.77-370-106,43.44,2.58-178.121-15.2-185.02,109.77,0,60.96,73.334,100.11,166.56,116.25C1138,1419.61,1299.24,1383.69,1423,1286m-282.4-14.84c-146.386,84.18-223.774,17.08-222.795,9.4,8.486-66.6,195.385-20.69,222.705-9.91"/>
</svg>
