<?xml version="1.0" encoding="UTF-8"?>
<svg xmlns="http://www.w3.org/2000/svg" xmlns:xlink="http://www.w3.org/1999/xlink" width="30px" height="30px" viewBox="0 0 30 30" version="1.1">
<g id="surface1">
<path style=" stroke:none;fill-rule:evenodd;fill:rgb(0%,0%,0%);fill-opacity:1;" d="M 25.871094 22.339844 C 24.074219 21.742188 22.144531 21.296875 20.113281 21.007812 C 20.390625 19.382812 20.539062 17.679688 20.585938 15.9375 L 28.089844 15.9375 C 27.921875 18.300781 27.128906 20.488281 25.871094 22.339844 Z M 18.21875 27.710938 C 18.84375 26.203125 19.355469 24.574219 19.746094 22.855469 C 21.433594 23.105469 23.050781 23.472656 24.582031 23.957031 C 22.890625 25.757812 20.695312 27.085938 18.21875 27.710938 Z M 15.910156 28.078125 C 15.609375 28.101562 15.308594 28.125 15 28.125 C 14.691406 28.125 14.390625 28.101562 14.089844 28.078125 C 13.292969 26.417969 12.644531 24.570312 12.167969 22.605469 C 13.101562 22.523438 14.042969 22.476562 15 22.476562 C 15.957031 22.476562 16.898438 22.523438 17.832031 22.605469 C 17.355469 24.570312 16.707031 26.417969 15.910156 28.078125 Z M 5.417969 23.957031 C 6.949219 23.472656 8.566406 23.105469 10.253906 22.855469 C 10.644531 24.574219 11.15625 26.203125 11.78125 27.710938 C 9.304688 27.085938 7.113281 25.757812 5.417969 23.957031 Z M 4.128906 22.339844 C 2.871094 20.488281 2.078125 18.300781 1.910156 15.9375 L 9.414062 15.9375 C 9.460938 17.679688 9.609375 19.382812 9.886719 21.007812 C 7.855469 21.296875 5.925781 21.742188 4.128906 22.339844 Z M 4.128906 7.660156 C 5.925781 8.257812 7.855469 8.703125 9.886719 8.992188 C 9.609375 10.617188 9.460938 12.320312 9.414062 14.0625 L 1.910156 14.0625 C 2.078125 11.699219 2.871094 9.511719 4.128906 7.660156 Z M 11.78125 2.289062 C 11.15625 3.796875 10.644531 5.425781 10.253906 7.144531 C 8.566406 6.894531 6.949219 6.527344 5.417969 6.042969 C 7.113281 4.242188 9.304688 2.914062 11.78125 2.289062 Z M 14.089844 1.921875 C 14.390625 1.898438 14.691406 1.875 15 1.875 C 15.308594 1.875 15.609375 1.898438 15.910156 1.921875 C 16.707031 3.582031 17.355469 5.433594 17.832031 7.394531 C 16.898438 7.476562 15.957031 7.523438 15 7.523438 C 14.042969 7.523438 13.101562 7.476562 12.167969 7.394531 C 12.644531 5.433594 13.292969 3.582031 14.089844 1.921875 Z M 18.707031 15.9375 C 18.65625 17.589844 18.507812 19.210938 18.222656 20.769531 C 17.167969 20.679688 16.09375 20.625 15 20.625 C 13.90625 20.625 12.832031 20.679688 11.777344 20.769531 C 11.492188 19.210938 11.34375 17.589844 11.292969 15.9375 Z M 11.292969 14.0625 C 11.34375 12.410156 11.492188 10.789062 11.777344 9.230469 C 12.832031 9.320312 13.90625 9.375 15 9.375 C 16.09375 9.375 17.167969 9.320312 18.222656 9.230469 C 18.507812 10.789062 18.65625 12.410156 18.707031 14.0625 Z M 24.582031 6.042969 C 23.050781 6.527344 21.433594 6.894531 19.746094 7.144531 C 19.355469 5.425781 18.84375 3.796875 18.21875 2.289062 C 20.695312 2.914062 22.890625 4.242188 24.582031 6.042969 Z M 25.871094 7.660156 C 27.128906 9.511719 27.921875 11.699219 28.089844 14.0625 L 20.585938 14.0625 C 20.539062 12.320312 20.390625 10.617188 20.113281 8.992188 C 22.144531 8.703125 24.074219 8.257812 25.871094 7.660156 Z M 15 0 C 6.714844 0 0 6.714844 0 15 C 0 23.285156 6.714844 30 15 30 C 23.285156 30 30 23.285156 30 15 C 30 6.714844 23.285156 0 15 0 Z M 15 0 "/>
</g>
</svg>
